# xmcd CD database file
#
# Track frame offsets:
#	150
#	15695
#	30637
#	44722
#	57892
#	70792
#	85010
#	102520
#	116130
#	130967
#	145427
#	159037
#	177997
#	192697
#	208112
#	221915
#	236777
#	250005
#	263390
#	277382
#
# Disc length: 3801 seconds
#
# Revision: 0
# Processed by: cddbd v1.5.2PL0 Copyright (c) Steve Scherf et al.
# Submitted via: CDex 1.70beta2
#
DISCID=350ed714
DTITLE=Billie Holiday - Masters of Jazz [CD2]
DYEAR=1900
DGENRE=Jazz
TTITLE0=Yesterdays
TTITLE1=Fine and mellow
TTITLE2=Tell me more and more
TTITLE3=Laughing at life
TTITLE4=St Louis Blues
TTITLE5=Georgia an my mind
TTITLE6=All of me
TTITLE7=God bless the child
TTITLE8=Solitude
TTITLE9=Gloomy sunday
TTITLE10=Whrerever you are
TTITLE11=I love my man
TTITLE12=As time goes by
TTITLE13=Lover come back to me
TTITLE14=On the sunny side of the street
TTITLE15=Lover man
TTITLE16=Don#t explain
TTITLE17=Strange fruit
TTITLE18=The man I love
TTITLE19=Do you know what it means to miss New Orleans?
EXTD=
EXTT0=
EXTT1=
EXTT2=
EXTT3=
EXTT4=
EXTT5=
EXTT6=
EXTT7=
EXTT8=
EXTT9=
EXTT10=
EXTT11=
EXTT12=
EXTT13=
EXTT14=
EXTT15=
EXTT16=
EXTT17=
EXTT18=
EXTT19=
PLAYORDER=
